# xmcd CD database file
#
# Track frame offsets:
#	150
#	12225
#	28537
#	42630
#	55537
#	75692
#	91130
#	109317
#	137242
#	153715
#	170860
#	183917
#	205285
#	224432
#	241312
#	258285
#
# Disc length: 3678 seconds
#
# Revision: 0
# Processed by: cddbd v1.4PL0 Copyright (c) Steve Scherf et al.
# Submitted via: Feurio! 1.62 - http://www.feurio.com
#
DISCID=e00e5c10
DTITLE=Tom Russell - Beyond St. Olav's Gate
DYEAR=1900
DGENRE=Country
TTITLE0=Cropduster
TTITLE1=St. Olav's Gate
TTITLE2=The Dance
TTITLE3=Home Before Dark
TTITLE4=U.S. Steel
TTITLE5=The Road To Bayamon
TTITLE6=Blue Wing
TTITLE7=Gallo Del Cielo
TTITLE8=Veteran's Day
TTITLE9=Walkin' On The Moon
TTITLE10=Outbound Plane
TTITLE11=The Greatest Show On Earth
TTITLE12=Navajo Rug
TTITLE13=Black Pearl
TTITLE14=Beyond The Blues
TTITLE15=Haley's Comet
EXTD=
EXTT0=
EXTT1=
EXTT2=
EXTT3=
EXTT4=
EXTT5=
EXTT6=
EXTT7=
EXTT8=
EXTT9=
EXTT10=
EXTT11=
EXTT12=
EXTT13=
EXTT14=
EXTT15=
PLAYORDER=
